<svg height="1982" width="720" xmlns="http://www.w3.org/2000/svg">
<rect height="1982" fill="#555" width="720"></rect>
<text fill="#7f7" font-family="Courier New" font-size="12" xml:space="preserve">
<tspan x="10" y="26"></tspan>
<tspan x="10" y="42">&gt; npmdoc-jslint@0.0.2 test /home/travis/build/npmdoc/node-npmdoc-jslint</tspan>
<tspan x="10" y="58">&gt; (set -e; export PORT=$(utility2 shServerPortRandom); utility2 test test.js)</tspan>
<tspan x="10" y="74"></tspan>
<tspan x="10" y="90"></tspan>
<tspan x="10" y="106">[MODE_BUILD=npmTest] - 2017-03-19T19:34:14Z - npm-testing /home/travis/build/npmdoc/node-npmdoc-\</tspan>
<tspan x="10" y="122">jslint</tspan>
<tspan x="10" y="138"></tspan>
<tspan x="10" y="154"></tspan>
<tspan x="10" y="170">covering $ /home/travis/.nvm/versions/node/v7.7.3/bin/node /home/travis/build/npmdoc/node-npmdoc\</tspan>
<tspan x="10" y="186">-jslint/test.js</tspan>
<tspan x="10" y="202">merging file:///home/travis/build/npmdoc/node-npmdoc-jslint/tmp/build/test-report.json to test-r\</tspan>
<tspan x="10" y="218">eport</tspan>
<tspan x="10" y="234">&gt; server listening on http-port 53794</tspan>
<tspan x="10" y="250">created apidoc file:///home/travis/build/npmdoc/node-npmdoc-jslint/tmp/build/apidoc.html</tspan>
<tspan x="10" y="266"></tspan>
<tspan x="10" y="282"></tspan>
<tspan x="10" y="298">browserTest - created electron entry-page /home/travis/build/npmdoc/node-npmdoc-jslint/tmp/elect\</tspan>
<tspan x="10" y="314">ron.15ae8102dda0.fd35601b7e29e.html</tspan>
<tspan x="10" y="330"></tspan>
<tspan x="10" y="346">Xlib:  extension "RANDR" missing on display ":99.0".</tspan>
<tspan x="10" y="362">merging file:///home/travis/build/npmdoc/node-npmdoc-jslint/tmp/build/test-report.json to test-r\</tspan>
<tspan x="10" y="378">eport</tspan>
<tspan x="10" y="394">Xlib:  extension "RANDR" missing on display ":99.0".</tspan>
<tspan x="10" y="410">[4367:0319/193419:WARNING:audio_manager.cc(314)] Multiple instances of AudioManager detected</tspan>
<tspan x="10" y="426">[4367:0319/193419:WARNING:audio_manager.cc(275)] Multiple instances of AudioManager detected</tspan>
<tspan x="10" y="442">[4385:0319/193419:ERROR:sandbox_linux.cc(343)] InitializeSandbox() called with multiple threads \</tspan>
<tspan x="10" y="458">in process gpu-process. </tspan>
<tspan x="10" y="474">[4367:0319/193419:ERROR:browser_gpu_channel_host_factory.cc(131)] Failed to create channel.</tspan>
<tspan x="10" y="490"></tspan>
<tspan x="10" y="506">browserTest - opened url file:///home/travis/build/npmdoc/node-npmdoc-jslint/tmp/build/apidoc.ht\</tspan>
<tspan x="10" y="522">ml</tspan>
<tspan x="10" y="538"></tspan>
<tspan x="10" y="554">[node test-case 1 of 6 passed] - testCase_buildLib_default</tspan>
<tspan x="10" y="570">[node test-case 2 of 6 passed] - testCase_buildReadme_default</tspan>
<tspan x="10" y="586">[node test-case 3 of 6 passed] - testCase_buildTest_default</tspan>
<tspan x="10" y="602"></tspan>
<tspan x="10" y="618">browserTest - created electron entry-page /home/travis/build/npmdoc/node-npmdoc-jslint/tmp/elect\</tspan>
<tspan x="10" y="634">ron.15ae8103f590.a5aa849ecfab9.html</tspan>
<tspan x="10" y="650"></tspan>
<tspan x="10" y="666">(node:4353) DeprecationWarning: node --debug is deprecated. Please use node --inspect instead.</tspan>
<tspan x="10" y="682">Xlib:  extension "RANDR" missing on display ":99.0".</tspan>
<tspan x="10" y="698">&gt; server listening on http-port 55731</tspan>
<tspan x="10" y="714">merging file:///home/travis/build/npmdoc/node-npmdoc-jslint/tmp/build/test-report.json to test-r\</tspan>
<tspan x="10" y="730">eport</tspan>
<tspan x="10" y="746">Xlib:  extension "RANDR" missing on display ":99.0".</tspan>
<tspan x="10" y="762">[4435:0319/193424:WARNING:audio_manager.cc(314)] Multiple instances of AudioManager detected</tspan>
<tspan x="10" y="778">[4435:0319/193424:WARNING:audio_manager.cc(275)] Multiple instances of AudioManager detected</tspan>
<tspan x="10" y="794">[4458:0319/193424:ERROR:sandbox_linux.cc(343)] InitializeSandbox() called with multiple threads \</tspan>
<tspan x="10" y="810">in process gpu-process. </tspan>
<tspan x="10" y="826">[4435:0319/193424:ERROR:browser_gpu_channel_host_factory.cc(131)] Failed to create channel.</tspan>
<tspan x="10" y="842"></tspan>
<tspan x="10" y="858">browserTest - opened url http://127.0.0.1:53794?modeTest=1</tspan>
<tspan x="10" y="874"></tspan>
<tspan x="10" y="890"></tspan>
<tspan x="10" y="906">browserTest - created screen-capture file:///home/travis/build/npmdoc/node-npmdoc-jslint/tmp/bui\</tspan>
<tspan x="10" y="922">ld/screen-capture.npmTest.browser._2Fhome_2Ftravis_2Fbuild_2Fnpmdoc_2Fnode-npmdoc-jslint_2Ftmp_2\</tspan>
<tspan x="10" y="938">Fbuild_2Fapidoc.html.png</tspan>
<tspan x="10" y="954"></tspan>
<tspan x="10" y="970"></tspan>
<tspan x="10" y="986">browserTest - exit-code 0 - file:///home/travis/build/npmdoc/node-npmdoc-jslint/tmp/build/apidoc\</tspan>
<tspan x="10" y="1002">.html</tspan>
<tspan x="10" y="1018"></tspan>
<tspan x="10" y="1034">[node test-case 4 of 6 passed] - testCase_buildApidoc_default</tspan>
<tspan x="10" y="1050">[4435:0319/193425:INFO:CONSOLE(203)] "----------|-----------|-----------|-----------|-----------\</tspan>
<tspan x="10" y="1066">|</tspan>
<tspan x="10" y="1082">File      |   % Stmts |% Branches |   % Funcs |   % Lines |</tspan>
<tspan x="10" y="1098">----------|-----------|-----------|-----------|-----------|</tspan>
<tspan x="10" y="1114">----------|-----------|-----------|-----------|-----------|</tspan>
<tspan x="10" y="1130">All files |       100 |       100 |       100 |       100 |</tspan>
<tspan x="10" y="1146">----------|-----------|-----------|-----------|-----------|</tspan>
<tspan x="10" y="1162">", source: file:///home/travis/build/npmdoc/node-npmdoc-jslint/tmp/electron.15ae8103f590.a5aa849\</tspan>
<tspan x="10" y="1178">ecfab9.html (203)</tspan>
<tspan x="10" y="1194">[4435:0319/193425:INFO:CONSOLE(203)] "created coverage file:///tmp/build/coverage.html/index.htm\</tspan>
<tspan x="10" y="1210">l", source: file:///home/travis/build/npmdoc/node-npmdoc-jslint/tmp/electron.15ae8103f590.a5aa84\</tspan>
<tspan x="10" y="1226">9ecfab9.html (203)</tspan>
<tspan x="10" y="1242">[node test-case 5 of 6 passed] - testCase_buildApp_default</tspan>
<tspan x="10" y="1258"></tspan>
<tspan x="10" y="1274">browserTest - created screen-capture file:///home/travis/build/npmdoc/node-npmdoc-jslint/tmp/bui\</tspan>
<tspan x="10" y="1290">ld/screen-capture.npmTest.browser..png</tspan>
<tspan x="10" y="1306"></tspan>
<tspan x="10" y="1322"></tspan>
<tspan x="10" y="1338">browserTest - exit-code 0 - http://127.0.0.1:53794?modeTest=1</tspan>
<tspan x="10" y="1354"></tspan>
<tspan x="10" y="1370"></tspan>
<tspan x="10" y="1386">browserTest - merged coverage from /home/travis/build/npmdoc/node-npmdoc-jslint/tmp/coverage.npm\</tspan>
<tspan x="10" y="1402">Test.browser.%2F.json</tspan>
<tspan x="10" y="1418"></tspan>
<tspan x="10" y="1434"></tspan>
<tspan x="10" y="1450">browserTest - merging test-report from /home/travis/build/npmdoc/node-npmdoc-jslint/tmp/test-rep\</tspan>
<tspan x="10" y="1466">ort.npmTest.browser.%2F.json</tspan>
<tspan x="10" y="1482"></tspan>
<tspan x="10" y="1498">[node test-case 6 of 6 passed] - testCase_webpage_default</tspan>
<tspan x="10" y="1514">---------------------------|-----------|-----------|-----------|-----------|</tspan>
<tspan x="10" y="1530">File                       |   % Stmts |% Branches |   % Funcs |   % Lines |</tspan>
<tspan x="10" y="1546">---------------------------|-----------|-----------|-----------|-----------|</tspan>
<tspan x="10" y="1562">   node-npmdoc-jslint/     |       100 |       100 |       100 |       100 |</tspan>
<tspan x="10" y="1578">      example.js           |       100 |       100 |       100 |       100 |</tspan>
<tspan x="10" y="1594">      lib.npmdoc_jslint.js |       100 |       100 |       100 |       100 |</tspan>
<tspan x="10" y="1610">      test.js              |       100 |       100 |       100 |       100 |</tspan>
<tspan x="10" y="1626">---------------------------|-----------|-----------|-----------|-----------|</tspan>
<tspan x="10" y="1642">All files                  |       100 |       100 |       100 |       100 |</tspan>
<tspan x="10" y="1658">---------------------------|-----------|-----------|-----------|-----------|</tspan>
<tspan x="10" y="1674"></tspan>
<tspan x="10" y="1690">created coverage file:///home/travis/build/npmdoc/node-npmdoc-jslint/tmp/build/coverage.html/ind\</tspan>
<tspan x="10" y="1706">ex.html</tspan>
<tspan x="10" y="1722">merging file:///home/travis/build/npmdoc/node-npmdoc-jslint/tmp/build/test-report.json to test-r\</tspan>
<tspan x="10" y="1738">eport</tspan>
<tspan x="10" y="1754"></tspan>
<tspan x="10" y="1770">-------------------------------------------------------</tspan>
<tspan x="10" y="1786">| test-report - buildNpmdoc - node - linux v7.7.3 - 2017-03-19T19:34:00.345Z</tspan>
<tspan x="10" y="1802">|   27856 ms            0 failed        6 passed      |</tspan>
<tspan x="10" y="1818">-------------------------------------------------------</tspan>
<tspan x="10" y="1834"></tspan>
<tspan x="10" y="1850">created test-report file:///home/travis/build/npmdoc/node-npmdoc-jslint/tmp/build/test-report.ht\</tspan>
<tspan x="10" y="1866">ml</tspan>
<tspan x="10" y="1882"></tspan>
<tspan x="10" y="1898"></tspan>
<tspan x="10" y="1914">npmTest - 0 failed tests</tspan>
<tspan x="10" y="1930"></tspan>
<tspan x="10" y="1946"></tspan>
<tspan x="10" y="1962">[MODE_BUILD=npmTest] - 2017-03-19T19:34:30Z - EXIT_CODE - 0</tspan>
</text>
</svg>
